HIERARCHY
ROOT hip
{
  OFFSET 0.00112043 5.09927 -9.65472
  CHANNELS 6 Xposition Yposition Zposition Zrotation Xrotation Yrotation
  JOINT abdomen
  {
    OFFSET 0 -1.186 -1.5018
    CHANNELS 3 Zrotation Xrotation Yrotation
    JOINT abdomen2
    {
      OFFSET 0 9.964 0.2134
      CHANNELS 3 Zrotation Xrotation Yrotation
      JOINT chest
      {
        OFFSET 0 13.134 -3.2573
        CHANNELS 3 Zrotation Xrotation Yrotation
        JOINT neck
        {
          OFFSET 0 20.686 -1.6905
          CHANNELS 3 Zrotation Xrotation Yrotation
          JOINT head
          {
            OFFSET 0 7.238 -0.1237
            CHANNELS 3 Zrotation Xrotation Yrotation
            End Site
            {
              OFFSET 0 0 0
            }
          }
        }
        JOINT lCollar
        {
          OFFSET 1.7069 20.075 5.0056
          CHANNELS 3 Zrotation Xrotation Yrotation
          JOINT lShldr
          {
            OFFSET 13.6458 -0.047 -4.849
            CHANNELS 3 Zrotation Xrotation Yrotation
            JOINT lForeArm
            {
              OFFSET 28.3255 -0.9759 2.2888
              CHANNELS 3 Zrotation Xrotation Yrotation
              JOINT lHand
              {
                OFFSET 22.1583 -0.53 10.8316
                CHANNELS 3 Zrotation Xrotation Yrotation
                JOINT lThumb1
                {
                  OFFSET 0.786 0.112 2.5817
                  CHANNELS 3 Zrotation Xrotation Yrotation
                  JOINT lThumb2
                  {
                    OFFSET 0.3601 -0.878 4.2331
                    CHANNELS 3 Zrotation Xrotation Yrotation
                    JOINT lThumb2_End
                    {
                      OFFSET 1.8127 -1.216 2.2227
                      CHANNELS 3 Zrotation Xrotation Yrotation
                      End Site
                      {
                        OFFSET 0.0181 -0.0122 0.0222
                      }
                    }
                  }
                }
                JOINT lCarpal1
                {
                  OFFSET 0.9571 1.114 1.7695
                  CHANNELS 3 Zrotation Xrotation Yrotation
                  JOINT lIndex1
                  {
                    OFFSET 4.1246 0.487 4.1451
                    CHANNELS 3 Zrotation Xrotation Yrotation
                    JOINT lIndex2
                    {
                      OFFSET 3.4052 -1.454 2.7682
                      CHANNELS 3 Zrotation Xrotation Yrotation
                      JOINT lIndex2_End
                      {
                        OFFSET 1.4531 -1.795 1.2713
                        CHANNELS 3 Zrotation Xrotation Yrotation
                        End Site
                        {
                          OFFSET 0.0145 -0.0179 0.0127
                        }
                      }
                    }
                  }
                  JOINT lMid1
                  {
                    OFFSET 5.6954 0.21 2.1184
                    CHANNELS 3 Zrotation Xrotation Yrotation
                    JOINT lMid2
                    {
                      OFFSET 3.9766 -1.54 2.3863
                      CHANNELS 3 Zrotation Xrotation Yrotation
                      JOINT lMid2_End
                      {
                        OFFSET 1.4042 -1.926 1.125
                        CHANNELS 3 Zrotation Xrotation Yrotation
                        End Site
                        {
                          OFFSET 0.014 -0.0193 0.0113
                        }
                      }
                    }
                  }
                }
                JOINT lCarpal2
                {
                  OFFSET 2.0956 0.66 -0.3894
                  CHANNELS 3 Zrotation Xrotation Yrotation
                  JOINT lRing1
                  {
                    OFFSET 5.0395 -0.09 2.4971
                    CHANNELS 3 Zrotation Xrotation Yrotation
                    JOINT lRing2
                    {
                      OFFSET 3.7921 -1.552 1.4806
                      CHANNELS 3 Zrotation Xrotation Yrotation
                      JOINT lRing2_End
                      {
                        OFFSET 1.4655 -1.808 0.9609
                        CHANNELS 3 Zrotation Xrotation Yrotation
                        End Site
                        {
                          OFFSET 0.0147 -0.0181 0.0096
                        }
                      }
                    }
                  }
                  JOINT lPinky1
                  {
                    OFFSET 4.9141 -1.269 0.3591
                    CHANNELS 3 Zrotation Xrotation Yrotation
                    JOINT lPinky2
                    {
                      OFFSET 3.1477 -1.685 0.8462
                      CHANNELS 3 Zrotation Xrotation Yrotation
                      JOINT lPinky2_End
                      {
                        OFFSET 0.8055 -1.585 0.7955
                        CHANNELS 3 Zrotation Xrotation Yrotation
                        End Site
                        {
                          OFFSET 0.0081 -0.0158 0.008
                        }
                      }
                    }
                  }
                }
              }
            }
          }
        }
        JOINT rCollar
        {
          OFFSET -1.7069 20.075 5.0056
          CHANNELS 3 Zrotation Xrotation Yrotation
          JOINT rShldr
          {
            OFFSET -13.6458 -0.047 -4.849
            CHANNELS 3 Zrotation Xrotation Yrotation
            JOINT rForeArm
            {
              OFFSET -28.3255 -0.9759 2.2888
              CHANNELS 3 Zrotation Xrotation Yrotation
              JOINT rHand
              {
                OFFSET -22.1583 -0.53 10.8316
                CHANNELS 3 Zrotation Xrotation Yrotation
                JOINT rThumb1
                {
                  OFFSET -0.786 0.112 2.5817
                  CHANNELS 3 Zrotation Xrotation Yrotation
                  JOINT rThumb2
                  {
                    OFFSET -0.3601 -0.878 4.2331
                    CHANNELS 3 Zrotation Xrotation Yrotation
                    JOINT rThumb2_End
                    {
                      OFFSET -1.8127 -1.216 2.2227
                      CHANNELS 3 Zrotation Xrotation Yrotation
                      End Site
                      {
                        OFFSET -0.0181 -0.0122 0.0222
                      }
                    }
                  }
                }
                JOINT rCarpal1
                {
                  OFFSET -0.9571 1.114 1.7695
                  CHANNELS 3 Zrotation Xrotation Yrotation
                  JOINT rIndex1
                  {
                    OFFSET -4.1246 0.487 4.1451
                    CHANNELS 3 Zrotation Xrotation Yrotation
                    JOINT rIndex2
                    {
                      OFFSET -3.4052 -1.454 2.7682
                      CHANNELS 3 Zrotation Xrotation Yrotation
                      JOINT rIndex2_End
                      {
                        OFFSET -1.4531 -1.795 1.2713
                        CHANNELS 3 Zrotation Xrotation Yrotation
                        End Site
                        {
                          OFFSET -0.0145 -0.018 0.0127
                        }
                      }
                    }
                  }
                  JOINT rMid1
                  {
                    OFFSET -5.6954 0.21 2.1184
                    CHANNELS 3 Zrotation Xrotation Yrotation
                    JOINT rMid2
                    {
                      OFFSET -3.9766 -1.54 2.3863
                      CHANNELS 3 Zrotation Xrotation Yrotation
                      JOINT rMid2_End
                      {
                        OFFSET -1.4042 -1.926 1.125
                        CHANNELS 3 Zrotation Xrotation Yrotation
                        End Site
                        {
                          OFFSET -0.014 -0.0193 0.0113
                        }
                      }
                    }
                  }
                }
                JOINT rCarpal2
                {
                  OFFSET -2.0956 0.66 -0.3894
                  CHANNELS 3 Zrotation Xrotation Yrotation
                  JOINT rRing1
                  {
                    OFFSET -5.0395 -0.09 2.4971
                    CHANNELS 3 Zrotation Xrotation Yrotation
                    JOINT rRing2
                    {
                      OFFSET -3.7921 -1.552 1.4806
                      CHANNELS 3 Zrotation Xrotation Yrotation
                      JOINT rRing2_End
                      {
                        OFFSET -1.4655 -1.808 0.9609
                        CHANNELS 3 Zrotation Xrotation Yrotation
                        End Site
                        {
                          OFFSET -0.0147 -0.0181 0.0096
                        }
                      }
                    }
                  }
                  JOINT rPinky1
                  {
                    OFFSET -4.9141 -1.269 0.3592
                    CHANNELS 3 Zrotation Xrotation Yrotation
                    JOINT rPinky2
                    {
                      OFFSET -3.1477 -1.685 0.8462
                      CHANNELS 3 Zrotation Xrotation Yrotation
                      JOINT rPinky2_End
                      {
                        OFFSET -0.8055 -1.585 0.7955
                        CHANNELS 3 Zrotation Xrotation Yrotation
                        End Site
                        {
                          OFFSET -0.0081 -0.0158 0.008
                        }
                      }
                    }
                  }
                }
              }
            }
          }
        }
      }
    }
  }
  JOINT lThigh
  {
    OFFSET 8.367 -8.2066 0.5982
    CHANNELS 3 Zrotation Xrotation Yrotation
    JOINT lShin
    {
      OFFSET 2.1923 -43.463 -0.4932
      CHANNELS 3 Zrotation Xrotation Yrotation
      JOINT lFoot
      {
        OFFSET 0.7333 -45.8593 -2.6451
        CHANNELS 3 Zrotation Xrotation Yrotation
        End Site
        {
          OFFSET 2.6618 -4.2699 12.3931
        }
      }
    }
  }
  JOINT rThigh
  {
    OFFSET -8.367 -8.2066 0.5982
    CHANNELS 3 Zrotation Xrotation Yrotation
    JOINT rShin
    {
      OFFSET -2.1923 -43.463 -0.4931
      CHANNELS 3 Zrotation Xrotation Yrotation
      JOINT rFoot
      {
        OFFSET -0.7333 -45.8593 -2.6451
        CHANNELS 3 Zrotation Xrotation Yrotation
        End Site
        {
          OFFSET -2.6618 -4.2699 12.3931
        }
      }
    }
  }
}
MOTION
Frames:	4
Frame Time:	0.0333333
0 91.7903 2.51682 0 0 -0 0 0 -0 0 0 -0 0 0 -0 0 0 -0 0 0 -0 0 0 -0 1.66051 0.0835086 5.75766 -0.0175111 0.895433 15.7816 7.95139e-016 -1.98785e-016 -0 5.46658e-016 -3.97569e-016 -0 5.96354e-016 0 -0 3.97569e-016 1.98785e-016 9.54166e-015 1.49089e-016 -3.97569e-016 -0 6.4605e-016 0 3.18055e-015 5.96354e-016 0 3.18055e-015 8.94531e-016 -1.98785e-016 6.36111e-015 6.4605e-016 0 3.18055e-015 5.96354e-016 0 3.18055e-015 8.94531e-016 -1.98785e-016 6.36111e-015 1.49089e-016 -3.97569e-016 -0 6.4605e-016 0 3.18055e-015 5.96354e-016 0 3.18055e-015 8.94531e-016 -1.98785e-016 6.36111e-015 6.4605e-016 0 3.18055e-015 5.96354e-016 0 3.18055e-015 8.94531e-016 -1.98785e-016 6.36111e-015 0 0 -0 -1.4496 0.0636048 -5.0245 -1.74811 1.20616 -16.8394 -1.19271e-015 1.98785e-016 -3.18055e-015 -3.97569e-016 1.98785e-016 -3.18055e-015 -2.98177e-016 1.98785e-016 -3.18055e-015 -2.98177e-016 3.97569e-016 -0 4.96962e-016 0 -6.36111e-015 -9.93923e-017 3.97569e-016 -0 -8.94531e-016 5.96354e-016 -0 -3.97569e-016 3.97569e-016 -0 -9.93923e-017 3.97569e-016 -0 -8.94531e-016 5.96354e-016 -0 -3.97569e-016 3.97569e-016 -0 4.96962e-016 0 -6.36111e-015 -9.93923e-017 3.97569e-016 -0 -8.94531e-016 5.96354e-016 -0 -3.97569e-016 3.97569e-016 -0 -9.93923e-017 3.97569e-016 -0 -8.94531e-016 5.96354e-016 -0 -3.97569e-016 3.97569e-016 -0 -4.66111 -0.998717 0.12318 0.00986924 1.54847 0.176523 4.65186 -0.572283 -0.254274 4.66111 -0.998765 -0.123176 -0.00986867 1.54869 -0.176537 -4.65186 -0.572453 0.25427 
1.73584 59.4572 12.0057 0 38.9981 -0 0.259336 -4.77614 -0.262189 0.499265 -9.55338 -0.505242 0.499265 -9.55337 -0.505242 -8.89277e-006 0.32697 1.9663e-006 0.148628 0.312991 -0.000404273 -20.1002 -4.27543 -23.4473 -54.8124 58.0007 25.5609 -1.98013 2.52006 -0.298888 24.6416 -18.2035 -33.8389 3.18055e-015 0 -0 -3.18055e-015 1.59028e-015 -0 0 0 -0 3.18055e-015 -1.59028e-015 -0 -3.18055e-015 6.36111e-015 1.27222e-014 0 0 -0 0 7.95139e-016 -0 -3.18055e-015 6.36111e-015 1.27222e-014 0 0 -0 0 7.95139e-016 -0 3.18055e-015 -1.59028e-015 -0 -3.18055e-015 6.36111e-015 1.27222e-014 0 0 -0 0 7.95139e-016 -0 -3.18055e-015 6.36111e-015 1.27222e-014 0 0 -0 0 7.95139e-016 -0 14.4384 1.47747 -39.9513 91.6112 -1.40032 71.9697 12.8443 44.9374 71.7023 47.7653 -20.8426 10.7787 3.18055e-015 1.59028e-015 -1.59028e-015 1.59082e-006 -9.8338e-006 -6.92218e-007 -5.06802e-006 4.91982e-006 2.32983e-006 3.18055e-015 1.59028e-015 -1.59028e-015 -3.18055e-015 0 1.59028e-015 1.59082e-006 -9.8338e-006 -6.92218e-007 -5.06802e-006 4.91982e-006 2.32983e-006 -3.18055e-015 0 1.59028e-015 1.59082e-006 -9.8338e-006 -6.92218e-007 -5.06802e-006 4.91982e-006 2.32983e-006 3.18055e-015 1.59028e-015 -1.59028e-015 -3.18055e-015 0 1.59028e-015 1.59082e-006 -9.8338e-006 -6.92218e-007 -5.06802e-006 4.91982e-006 2.32983e-006 -3.18055e-015 0 1.59028e-015 1.59082e-006 -9.8338e-006 -6.92218e-007 -5.06802e-006 4.91982e-006 2.32983e-006 57.8992 -25.6931 24.2997 4.91237 82.6045 0.643125 -58.0245 44.0928 68.8435 -57.9172 -25.6824 -24.3268 -5.02173 82.5928 -0.547976 57.9918 44.1194 -68.8343 
1.73591 59.3749 12.3243 0 37.564 -0 0.257287 -4.44412 -0.264283 0.496188 -8.88935 -0.510794 0.496188 -8.88935 -0.510794 -1.11688e-006 0.49174 3.08586e-006 0.295385 0.623551 -0.0291936 -19.8223 -4.90579 -23.9215 -55.0947 57.9497 25.6646 -2.08834 2.53666 -0.803905 24.4107 -17.9811 -33.3517 -1.7866e-006 -1.30736e-006 -1.54298e-006 6.36111e-015 2.38542e-015 -7.95139e-016 6.36111e-015 0 1.59028e-015 3.18055e-015 -7.95139e-016 -0 -1.7866e-006 -1.30736e-006 -1.54298e-006 -0 0 7.95139e-016 0 1.59028e-015 -0 -1.7866e-006 -1.30736e-006 -1.54298e-006 -0 0 7.95139e-016 0 1.59028e-015 -0 3.18055e-015 -7.95139e-016 -0 -1.7866e-006 -1.30736e-006 -1.54298e-006 -0 0 7.95139e-016 0 1.59028e-015 -0 -1.7866e-006 -1.30736e-006 -1.54298e-006 -0 0 7.95139e-016 0 1.59028e-015 -0 14.1769 1.31647 -39.3231 91.6023 -1.70933 72.127 12.8544 44.7279 71.6024 47.5967 -20.998 10.6612 6.36111e-015 -1.59028e-015 -3.18055e-015 -6.36111e-015 -3.18055e-015 -3.18055e-015 -3.18055e-015 -1.59028e-015 -3.18055e-015 6.36111e-015 -1.59028e-015 -1.59028e-015 -3.18055e-015 -1.59028e-015 -3.18055e-015 -3.18055e-015 0 -0 -3.18055e-015 -4.77083e-015 -3.18055e-015 -3.18055e-015 -1.59028e-015 -3.18055e-015 -3.18055e-015 0 -0 -3.18055e-015 -4.77083e-015 -3.18055e-015 6.36111e-015 -1.59028e-015 -1.59028e-015 -3.18055e-015 -1.59028e-015 -3.18055e-015 -3.18055e-015 0 -0 -3.18055e-015 -4.77083e-015 -3.18055e-015 -3.18055e-015 -1.59028e-015 -3.18055e-015 -3.18055e-015 0 -0 -3.18055e-015 -4.77083e-015 -3.18055e-015 57.8436 -23.8815 23.965 4.38092 82.0397 1.08244 -56.9056 44.8246 68.0616 -57.8563 -23.8752 -23.9829 -4.4883 82.0292 -0.988309 56.8815 44.8442 -68.057 
1.73599 59.2929 12.6366 0 36.1262 -0 0.255234 -4.11162 -0.266339 0.493159 -8.22437 -0.51626 0.493159 -8.22437 -0.51626 -4.58506e-006 0.65671 1.65828e-006 0.442396 0.93422 -0.0587982 -19.5491 -5.53903 -24.3936 -55.3764 57.8984 25.7677 -2.19641 2.5542 -1.30904 24.178 -17.7604 -32.8639 6.36111e-015 0 7.95139e-016 0 0 -1.59028e-015 3.18055e-015 -1.59028e-015 7.95139e-016 6.36111e-015 0 7.95139e-016 -1.09244e-030 7.15625e-015 8.74653e-015 -2.20695e-032 -1.59028e-015 -7.95139e-016 -0 -1.59028e-015 -0 -1.09244e-030 7.15625e-015 8.74653e-015 -2.20695e-032 -1.59028e-015 -7.95139e-016 -0 -1.59028e-015 -0 6.36111e-015 0 7.95139e-016 -1.09244e-030 7.15625e-015 8.74653e-015 -2.20695e-032 -1.59028e-015 -7.95139e-016 -0 -1.59028e-015 -0 -1.09244e-030 7.15625e-015 8.74653e-015 -2.20695e-032 -1.59028e-015 -7.95139e-016 -0 -1.59028e-015 -0 13.9172 1.15247 -38.6954 91.5942 -2.01844 72.2843 12.8639 44.5183 71.5029 47.4275 -21.153 10.543 9.26679e-007 -4.45772e-007 1.30865e-006 9.26679e-007 -4.45772e-007 1.30865e-006 1.90833e-014 -1.59028e-015 -0 -1.27222e-014 -1.59028e-015 -1.59028e-015 9.26679e-007 -4.45772e-007 1.30865e-006 9.26679e-007 -4.45772e-007 1.30865e-006 6.36111e-015 -3.18055e-015 -1.59028e-015 9.26679e-007 -4.45772e-007 1.30865e-006 9.26679e-007 -4.45772e-007 1.30865e-006 6.36111e-015 -3.18055e-015 -1.59028e-015 -1.27222e-014 -1.59028e-015 -1.59028e-015 9.26679e-007 -4.45772e-007 1.30865e-006 9.26679e-007 -4.45772e-007 1.30865e-006 6.36111e-015 -3.18055e-015 -1.59028e-015 9.26679e-007 -4.45772e-007 1.30865e-006 9.26679e-007 -4.45772e-007 1.30865e-006 6.36111e-015 -3.18055e-015 -1.59028e-015 57.8014 -22.0725 23.6354 3.92078 81.4762 1.45071 -55.7609 45.5486 67.2528 -57.8093 -22.0705 -23.6443 -4.02598 81.4669 -1.35784 55.746 45.5614 -67.2532 
